<svg width="16" height="16" viewBox="0 0 16 16" fill="none" xmlns="http://www.w3.org/2000/svg">
<g clip-path="url(#clip0_2018_32)">
<path d="M15.504 13.616L11.714 10.393C11.3219 10.04 10.903 9.87899 10.5649 9.89399C11.5708 8.71451 12.0811 7.19152 11.989 5.64413C11.8969 4.09674 11.2095 2.64504 10.0708 1.59323C8.93213 0.541423 7.43055 -0.0288701 5.88072 0.00185114C4.3309 0.0325723 2.8531 0.661924 1.75699 1.75803C0.660886 2.85414 0.0315347 4.33193 0.00081354 5.88176C-0.0299077 7.43159 0.540386 8.93316 1.5922 10.0718C2.644 11.2105 4.0957 11.898 5.64309 11.9901C7.19048 12.0822 8.71348 11.5718 9.89295 10.566C9.87695 10.904 10.039 11.323 10.392 11.715L13.615 15.505C14.167 16.118 15.068 16.17 15.618 15.62C16.1679 15.07 16.116 14.168 15.503 13.617L15.504 13.616ZM5.99995 9.99999C4.93908 9.99999 3.92167 9.57856 3.17152 8.82841C2.42138 8.07827 1.99995 7.06085 1.99995 5.99999C1.99995 4.93912 2.42138 3.92171 3.17152 3.17156C3.92167 2.42142 4.93908 1.99999 5.99995 1.99999C7.06082 1.99999 8.07823 2.42142 8.82838 3.17156C9.57852 3.92171 9.99995 4.93912 9.99995 5.99999C9.99995 7.06085 9.57852 8.07827 8.82838 8.82841C8.07823 9.57856 7.06082 9.99999 5.99995 9.99999Z" fill="#083D78"/>
</g>
<defs>
<clipPath id="clip0_2018_32">
<rect width="16" height="16" fill="white"/>
</clipPath>
</defs>
</svg>
