<svg width="12" height="12" viewBox="0 0 12 12" fill="none" xmlns="http://www.w3.org/2000/svg">
<path d="M2.51836 1.463C2.5182 1.78714 2.38537 2.09793 2.14911 2.32701C1.91285 2.5561 1.59251 2.68471 1.25855 2.68454C0.924596 2.68438 0.604385 2.55546 0.368361 2.32615C0.132336 2.09684 -0.00016682 1.78591 1.57625e-07 1.46178C0.000167135 1.13764 0.132991 0.826847 0.369251 0.597763C0.605511 0.368679 0.925856 0.240072 1.25981 0.240235C1.59377 0.240397 1.91398 0.369314 2.15 0.598627C2.38603 0.82794 2.51853 1.13886 2.51836 1.463ZM2.55614 3.58955H0.0377756V11.2402H2.55614V3.58955ZM6.53515 3.58955H4.02938V11.2402H6.50997V7.22546C6.50997 4.98892 9.51312 4.78115 9.51312 7.22546V11.2402H12V6.39439C12 2.62405 7.55509 2.76459 6.50997 4.61616L6.53515 3.58955Z" fill="#111638"/>
</svg>
