<svg width="16" height="16" viewBox="0 0 16 16" fill="none" xmlns="http://www.w3.org/2000/svg">
<path d="M15.1683 0.384505L15.2478 0.380005L15.3453 0.386005L15.4128 0.398005L15.505 0.424255L15.5853 0.458755L15.6603 0.501505L15.7278 0.551755L15.7893 0.608005L15.8283 0.652255L15.8898 0.739255L15.9288 0.811255C15.9638 0.886255 15.9863 0.965255 15.9963 1.04825L16 1.12775C16 1.18425 15.994 1.23925 15.982 1.29275L15.9558 1.385L11.0568 14.9428C10.9639 15.1449 10.815 15.3162 10.6276 15.4363C10.4403 15.5563 10.2225 15.6201 10 15.62C9.79967 15.6204 9.60263 15.5691 9.42799 15.4709C9.25335 15.3727 9.10705 15.2311 9.00326 15.0598L8.95451 14.9645L6.44051 9.93801L1.43801 7.436C1.25291 7.35135 1.09328 7.21958 0.975089 7.05387C0.856897 6.88817 0.784283 6.69433 0.76451 6.49176L0.76001 6.38C0.76001 5.96 0.98576 5.576 1.39076 5.3525L1.49576 5.3L15.0085 0.420505L15.088 0.398005L15.1683 0.384505Z" fill="#C85103"/>
</svg>
