<svg width="16" height="16" viewBox="0 0 16 16" fill="none" xmlns="http://www.w3.org/2000/svg">
<path d="M8 7.6C7.43168 7.6 6.88663 7.38929 6.48477 7.01421C6.08291 6.63914 5.85714 6.13043 5.85714 5.6C5.85714 5.06957 6.08291 4.56086 6.48477 4.18579C6.88663 3.81071 7.43168 3.6 8 3.6C8.56832 3.6 9.11337 3.81071 9.51523 4.18579C9.91709 4.56086 10.1429 5.06957 10.1429 5.6C10.1429 5.86264 10.0874 6.12272 9.97974 6.36537C9.87205 6.60802 9.71421 6.8285 9.51523 7.01421C9.31625 7.19993 9.08002 7.34725 8.82004 7.44776C8.56005 7.54827 8.2814 7.6 8 7.6ZM8 0C6.4087 0 4.88258 0.589998 3.75736 1.6402C2.63214 2.69041 2 4.11479 2 5.6C2 9.8 8 16 8 16C8 16 14 9.8 14 5.6C14 4.11479 13.3679 2.69041 12.2426 1.6402C11.1174 0.589998 9.5913 0 8 0Z" fill="#083D78"/>
</svg>
