<svg width="19" height="19" viewBox="0 0 19 19" fill="none" xmlns="http://www.w3.org/2000/svg">
<path d="M17.3051 18.2958L11.0051 11.9958C10.5051 12.3958 9.93008 12.7125 9.28008 12.9458C8.63008 13.1791 7.93841 13.2958 7.20508 13.2958C5.38841 13.2958 3.85091 12.6666 2.59258 11.4083C1.33424 10.15 0.705078 8.61245 0.705078 6.79578C0.705078 4.97912 1.33424 3.44162 2.59258 2.18328C3.85091 0.924951 5.38841 0.295784 7.20508 0.295784C9.02174 0.295784 10.5592 0.924951 11.8176 2.18328C13.0759 3.44162 13.7051 4.97912 13.7051 6.79578C13.7051 7.52912 13.5884 8.22078 13.3551 8.87078C13.1217 9.52078 12.8051 10.0958 12.4051 10.5958L18.7051 16.8958L17.3051 18.2958ZM7.20508 11.2958C8.45508 11.2958 9.51758 10.8583 10.3926 9.98328C11.2676 9.10828 11.7051 8.04578 11.7051 6.79578C11.7051 5.54578 11.2676 4.48328 10.3926 3.60828C9.51758 2.73328 8.45508 2.29578 7.20508 2.29578C5.95508 2.29578 4.89258 2.73328 4.01758 3.60828C3.14258 4.48328 2.70508 5.54578 2.70508 6.79578C2.70508 8.04578 3.14258 9.10828 4.01758 9.98328C4.89258 10.8583 5.95508 11.2958 7.20508 11.2958Z" fill="#008889"/>
</svg>
