<svg width="18" height="18" viewBox="0 0 18 18" fill="none" xmlns="http://www.w3.org/2000/svg">
<path d="M16.1683 1.3845L16.2478 1.38L16.3453 1.386L16.4128 1.398L16.505 1.42425L16.5853 1.45875L16.6603 1.5015L16.7278 1.55175L16.7893 1.608L16.8283 1.65225L16.8898 1.73925L16.9288 1.81125C16.9638 1.88625 16.9863 1.96525 16.9963 2.04825L17 2.12775C17 2.18425 16.994 2.23925 16.982 2.29275L16.9558 2.385L12.0568 15.9428C11.9639 16.1449 11.815 16.3162 11.6276 16.4363C11.4403 16.5563 11.2225 16.6201 11 16.62C10.7997 16.6204 10.6026 16.5691 10.428 16.4709C10.2534 16.3727 10.107 16.2311 10.0033 16.0598L9.95451 15.9645L7.44051 10.938L2.43801 8.436C2.25291 8.35135 2.09328 8.21958 1.97509 8.05387C1.8569 7.88817 1.78428 7.69433 1.76451 7.49176L1.76001 7.38C1.76001 6.96 1.98576 6.576 2.39076 6.3525L2.49576 6.3L16.0085 1.4205L16.088 1.398L16.1683 1.3845Z" fill="#C85103"/>
</svg>
