<svg width="181" height="56" viewBox="0 0 181 56" fill="none" xmlns="http://www.w3.org/2000/svg">
<path d="M2.09946 28.3779C3.4991 25.7552 5.42851 23.7277 7.88769 22.2822C10.3403 20.8368 13.0742 20.1174 16.0893 20.1174C19.1044 20.1174 21.6421 20.7583 23.8266 22.0337C26.0111 23.3156 27.6462 24.9245 28.7188 26.8605V20.6733H34.4155V54.5917H28.7188V48.2802C27.6069 50.262 25.9457 51.9036 23.735 53.1986C21.5244 54.5001 18.9606 55.1476 16.0305 55.1476C13.1004 55.1476 10.2946 54.402 7.86153 52.9174C5.42851 51.4327 3.50564 49.3463 2.106 46.6648C0.69982 43.9832 0 40.9289 0 37.5017C0 34.0745 0.69982 30.994 2.106 28.3713L2.09946 28.3779ZM27.1687 30.8894C26.1353 28.9927 24.7422 27.5342 22.9894 26.5269C21.2366 25.5132 19.3072 25.0096 17.2012 25.0096C15.0952 25.0096 13.1789 25.5066 11.4457 26.4942C9.71246 27.4818 8.33244 28.9273 7.29906 30.824C6.26568 32.7207 5.74899 34.9509 5.74899 37.5082C5.74899 40.0655 6.26568 42.3677 7.29906 44.2841C8.33244 46.2004 9.71246 47.6654 11.4457 48.6792C13.1789 49.693 15.0952 50.1966 17.2012 50.1966C19.3072 50.1966 21.2366 49.693 22.9894 48.6792C24.7422 47.6654 26.1353 46.2004 27.1687 44.2841C28.2021 42.3677 28.7188 40.1244 28.7188 37.5671C28.7188 35.0098 28.2021 32.7795 27.1687 30.8828V30.8894Z" fill="#1D3F76"/>
<path d="M49.2621 8.78942V54.5917H43.6309V8.78942H49.2621Z" fill="#1D3F76"/>
<path d="M66.3456 25.317V45.3109C66.3456 46.9591 66.6988 48.1298 67.3986 48.81C68.0984 49.4902 69.3149 49.8303 71.0481 49.8303H75.1947V54.5982H70.1194C66.98 54.5982 64.632 53.8788 63.0623 52.4334C61.4926 50.988 60.7078 48.6138 60.7078 45.3175V25.3235H56.3127V20.6798H60.7078V12.1381H66.3391V20.6798H75.1882V25.3235H66.3391L66.3456 25.317Z" fill="#1D3F76"/>
<path d="M80.4597 28.3779C81.8594 25.7552 83.7888 23.7277 86.248 22.2822C88.7006 20.8368 91.4345 20.1174 94.4496 20.1174C97.4647 20.1174 100.002 20.7583 102.187 22.0337C104.371 23.3156 106.006 24.9245 107.079 26.8605V20.6733H112.776V54.5917H107.079V48.2802C105.967 50.262 104.306 51.9036 102.095 53.1986C99.8846 54.5001 97.3208 55.1476 94.3907 55.1476C91.4606 55.1476 88.6548 54.402 86.2218 52.9174C83.7888 51.4327 81.8659 49.3463 80.4663 46.6648C79.0601 43.9832 78.3603 40.9289 78.3603 37.5017C78.3603 34.0745 79.0601 30.994 80.4663 28.3713L80.4597 28.3779ZM105.529 30.8894C104.496 28.9927 103.103 27.5342 101.35 26.5269C99.5969 25.5132 97.6674 25.0096 95.5614 25.0096C93.4554 25.0096 91.5391 25.5066 89.8059 26.4942C88.0727 27.4818 86.6927 28.9273 85.6593 30.824C84.6259 32.7207 84.1093 34.9509 84.1093 37.5082C84.1093 40.0655 84.6259 42.3677 85.6593 44.2841C86.6927 46.2004 88.0727 47.6654 89.8059 48.6792C91.5391 49.693 93.4554 50.1966 95.5614 50.1966C97.6674 50.1966 99.5969 49.693 101.35 48.6792C103.103 47.6654 104.496 46.2004 105.529 44.2841C106.562 42.3677 107.079 40.1244 107.079 37.5671C107.079 35.0098 106.562 32.7795 105.529 30.8828V30.8894Z" fill="#1D3F76"/>
<path d="M121.559 14.0479C120.814 13.3023 120.448 12.3997 120.448 11.3271C120.448 10.2545 120.82 9.34537 121.559 8.60631C122.305 7.86071 123.208 7.49445 124.28 7.49445C125.353 7.49445 126.19 7.86725 126.909 8.60631C127.629 9.35191 127.995 10.2545 127.995 11.3271C127.995 12.3997 127.635 13.3088 126.909 14.0479C126.19 14.7935 125.307 15.1598 124.28 15.1598C123.253 15.1598 122.298 14.787 121.559 14.0479ZM127.008 20.6733V54.5917H121.376V20.6733H127.008Z" fill="#1D3F76"/>
<path d="M139.755 53.8199C137.688 52.9304 136.059 51.6943 134.863 50.105C133.666 48.5157 133.005 46.6909 132.881 44.6241H138.702C138.865 46.3181 139.663 47.6981 141.082 48.7707C142.508 49.8434 144.372 50.3797 146.688 50.3797C148.833 50.3797 150.527 49.9088 151.763 48.9539C152.999 48.0055 153.62 46.8086 153.62 45.3632C153.62 43.9178 152.96 42.7732 151.639 42.0538C150.317 41.3343 148.277 40.6214 145.51 39.9216C142.992 39.261 140.939 38.5939 139.349 37.9072C137.76 37.227 136.4 36.2132 135.262 34.8724C134.123 33.5317 133.561 31.7658 133.561 29.5813C133.561 27.8481 134.078 26.2588 135.111 24.8133C136.144 23.3679 137.609 22.2233 139.506 21.3796C141.403 20.5359 143.568 20.1108 146.007 20.1108C149.762 20.1108 152.796 21.0592 155.105 22.9559C157.414 24.8526 158.656 27.4557 158.82 30.752H153.189C153.064 28.9796 152.352 27.5538 151.057 26.4811C149.755 25.4085 148.015 24.8722 145.824 24.8722C143.803 24.8722 142.194 25.3039 140.997 26.1737C139.801 27.0371 139.205 28.1751 139.205 29.5813C139.205 30.6931 139.565 31.6153 140.291 32.3348C141.01 33.0542 141.92 33.6363 143.012 34.068C144.104 34.4996 145.621 34.9836 147.564 35.5199C149.997 36.1805 151.979 36.828 153.509 37.469C155.033 38.1099 156.348 39.0714 157.44 40.3467C158.532 41.6286 159.101 43.2964 159.14 45.3632C159.14 47.2207 158.624 48.8885 157.59 50.3797C156.557 51.8643 155.105 53.0285 153.228 53.8788C151.351 54.7225 149.192 55.1476 146.759 55.1476C144.163 55.1476 141.828 54.7029 139.768 53.8199H139.755Z" fill="#1D3F76"/>
<path d="M180.704 13.0603C172.947 10.4572 169.729 3.63562 168.781 1.13066C168.67 0.83634 168.251 0.83634 168.14 1.13066C167.192 3.64216 163.974 10.4638 156.217 13.0603C155.909 13.165 155.909 13.5966 156.217 13.7013C163.974 16.3043 167.192 23.1259 168.14 25.6309C168.251 25.9252 168.67 25.9252 168.781 25.6309C169.729 23.1194 172.947 16.2978 180.704 13.7013C181.011 13.5966 181.011 13.165 180.704 13.0603ZM168.467 18.0964C168.467 18.0964 166.564 15.271 163.719 13.3808C166.57 11.4972 168.467 8.66517 168.467 8.66517C168.467 8.66517 170.37 11.4906 173.215 13.3808C170.364 15.2644 168.467 18.0964 168.467 18.0964Z" fill="url(#paint0_linear_273_935)"/>
<path d="M180.704 13.0603C173.215 10.5488 169.958 4.10653 168.892 1.40536C169.213 3.00775 168.637 7.41597 168.467 8.67172C168.474 8.6848 170.377 11.5037 173.215 13.3873C174.491 13.5639 178.696 14.1133 180.357 13.8321C180.475 13.7928 180.593 13.747 180.711 13.7078C181.018 13.6032 181.018 13.1715 180.711 13.0669L180.704 13.0603Z" fill="#C75327"/>
<defs>
<linearGradient id="paint0_linear_273_935" x1="166.799" y1="14.0348" x2="184.896" y2="6.92543" gradientUnits="userSpaceOnUse">
<stop stop-color="#FAA61A"/>
<stop offset="1" stop-color="#C75327"/>
</linearGradient>
</defs>
</svg>
