<svg width="181" height="55" viewBox="0 0 181 55" fill="none" xmlns="http://www.w3.org/2000/svg">
<path d="M2.09923 27.7276C3.50187 25.1071 5.43051 23.0742 7.88514 21.629C10.3398 20.1837 13.074 19.4634 16.0878 19.4634C19.1016 19.4634 21.6367 20.1031 23.826 21.3825C26.0105 22.662 27.6406 24.2731 28.7163 26.2112V20.0225H34.4122V53.942H28.7163V47.63C27.6027 49.6108 25.9395 51.2504 23.736 52.5488C21.5278 53.8472 18.9594 54.4964 16.0309 54.4964C13.1024 54.4964 10.2924 53.7524 7.86145 52.2692C5.42577 50.786 3.50661 48.701 2.10397 46.0189C0.701322 43.3368 0 40.2851 0 36.859C0 33.433 0.701322 30.3481 2.10397 27.7276H2.09923ZM27.1668 30.2344C26.1337 28.3389 24.7406 26.8841 22.9873 25.8701C21.234 24.8607 19.3053 24.3537 17.2014 24.3537C15.0974 24.3537 13.1782 24.8512 11.4439 25.8369C9.70953 26.8273 8.32584 28.2726 7.29754 30.168C6.26452 32.0682 5.75274 34.2954 5.75274 36.8543C5.75274 39.4132 6.26925 41.7114 7.29754 43.6306C8.33057 45.5498 9.70953 47.014 11.4439 48.0234C13.1782 49.0327 15.0974 49.5397 17.2014 49.5397C19.3053 49.5397 21.234 49.0327 22.9873 48.0234C24.7406 47.014 26.1337 45.5498 27.1668 43.6306C28.1998 41.7114 28.7163 39.4748 28.7163 36.9159C28.7163 34.357 28.1998 32.1298 27.1668 30.2296V30.2344Z" fill="white"/>
<path d="M49.2632 8.1377V53.9417H43.6289V8.1377H49.2632Z" fill="white"/>
<path d="M66.346 24.6664V44.6588C66.346 46.3079 66.6967 47.4736 67.398 48.156C68.0993 48.8383 69.3172 49.1795 71.0515 49.1795H75.1979V53.9466H70.1228C66.9858 53.9466 64.6354 53.2264 63.0669 51.7811C61.4984 50.3358 60.7165 47.9664 60.7165 44.6636V24.6711H56.3238V20.0272H60.7165V11.4834H66.3508V20.0272H75.2026V24.6711H66.3508L66.346 24.6664Z" fill="white"/>
<path d="M80.4578 27.7276C81.8604 25.1071 83.7891 23.0742 86.2437 21.629C88.6983 20.1837 91.4325 19.4634 94.4463 19.4634C97.4601 19.4634 99.9953 20.1031 102.185 21.3825C104.369 22.662 105.999 24.2731 107.075 26.2112V20.0225H112.771V53.942H107.075V47.63C105.961 49.6108 104.298 51.2504 102.095 52.5488C99.8863 53.8472 97.3179 54.4964 94.3895 54.4964C91.461 54.4964 88.6509 53.7524 86.22 52.2692C83.7843 50.786 81.8652 48.701 80.4625 46.0189C79.0599 43.3368 78.3586 40.2851 78.3586 36.859C78.3586 33.433 79.0599 30.3481 80.4625 27.7276H80.4578ZM105.53 30.2344C104.497 28.3389 103.104 26.8841 101.351 25.8701C99.5972 24.8607 97.6686 24.3537 95.5646 24.3537C93.4607 24.3537 91.5415 24.8512 89.8072 25.8369C88.0728 26.8273 86.6891 28.2726 85.6608 30.168C84.6278 32.0682 84.1113 34.2954 84.1113 36.8543C84.1113 39.4132 84.6278 41.7114 85.6608 43.6306C86.6939 45.5498 88.0728 47.014 89.8072 48.0234C91.5415 49.0327 93.4607 49.5397 95.5646 49.5397C97.6686 49.5397 99.5972 49.0327 101.351 48.0234C103.104 47.014 104.497 45.5498 105.53 43.6306C106.563 41.7114 107.075 39.4748 107.075 36.9159C107.075 34.357 106.558 32.1298 105.53 30.2296V30.2344Z" fill="white"/>
<path d="M121.556 13.3975C120.812 12.6536 120.443 11.7485 120.443 10.6728C120.443 9.59712 120.812 8.69203 121.556 7.94806C122.3 7.20409 123.205 6.83447 124.281 6.83447C125.357 6.83447 126.191 7.20409 126.911 7.94806C127.631 8.69203 127.996 9.59712 127.996 10.6728C127.996 11.7485 127.636 12.6536 126.911 13.3975C126.191 14.1415 125.309 14.5111 124.281 14.5111C123.253 14.5111 122.3 14.1415 121.556 13.3975ZM127.006 20.0222V53.9416H121.371V20.0222H127.006Z" fill="white"/>
<path d="M139.757 53.1694C137.691 52.2833 136.066 51.0465 134.867 49.4543C133.668 47.8668 133.01 46.0424 132.886 43.9764H138.706C138.871 45.6681 139.663 47.0518 141.089 48.1227C142.511 49.1984 144.378 49.7339 146.69 49.7339C148.837 49.7339 150.528 49.26 151.765 48.3123C153.002 47.3645 153.623 46.1656 153.623 44.7204C153.623 43.2751 152.964 42.133 151.642 41.408C150.32 40.6877 148.278 39.9769 145.515 39.2709C142.999 38.6122 140.942 37.9393 139.355 37.2569C137.767 36.5746 136.403 35.5652 135.27 34.2242C134.133 32.8832 133.569 31.1204 133.569 28.9311C133.569 27.1967 134.085 25.6093 135.118 24.164C136.151 22.7187 137.616 21.5767 139.511 20.7285C141.407 19.885 143.577 19.4585 146.013 19.4585C149.766 19.4585 152.798 20.4062 155.111 22.3064C157.423 24.2066 158.66 26.8034 158.826 30.1063H153.192C153.068 28.334 152.358 26.9077 151.054 25.8367C149.756 24.7658 148.012 24.2256 145.823 24.2256C143.8 24.2256 142.193 24.6568 140.994 25.524C139.795 26.3912 139.198 27.5237 139.198 28.9264C139.198 30.0399 139.558 30.9593 140.283 31.6795C141.004 32.3998 141.914 32.9779 143.008 33.4139C144.103 33.8451 145.619 34.3332 147.557 34.8687C149.993 35.5273 151.974 36.1813 153.5 36.8162C155.025 37.456 156.338 38.4179 157.428 39.6926C158.523 40.9721 159.087 42.6448 159.129 44.7061C159.129 46.5637 158.613 48.2317 157.58 49.7197C156.547 51.2029 155.092 52.3733 153.215 53.2168C151.339 54.0603 149.183 54.4868 146.747 54.4868C144.145 54.4868 141.814 54.0413 139.753 53.1552L139.757 53.1694Z" fill="white"/>
<path d="M180.704 12.4121C172.947 9.81056 169.73 2.99161 168.782 0.480114C168.673 0.186316 168.251 0.186316 168.142 0.480114C167.194 2.99161 163.977 9.81056 156.22 12.4121C155.912 12.5163 155.912 12.9476 156.22 13.0518C163.977 15.6533 167.194 22.4723 168.142 24.9838C168.251 25.2776 168.673 25.2776 168.782 24.9838C169.73 22.4723 172.947 15.6533 180.704 13.0518C181.012 12.9476 181.012 12.5163 180.704 12.4121ZM168.464 17.4446C168.464 17.4446 166.564 14.6156 163.711 12.7296C166.564 10.8436 168.464 8.0146 168.464 8.0146C168.464 8.0146 170.364 10.8436 173.217 12.7296C170.364 14.6156 168.464 17.4446 168.464 17.4446Z" fill="url(#paint0_linear_273_1096)"/>
<path d="M180.704 12.412C173.217 9.90052 169.957 3.45593 168.891 0.754883C169.213 2.36129 168.64 6.76826 168.464 8.01927C168.474 8.03348 170.369 10.853 173.212 12.7342C174.487 12.9096 178.695 13.4593 180.354 13.1749C180.472 13.1323 180.591 13.0944 180.709 13.0517C181.017 12.9475 181.017 12.5163 180.709 12.412H180.704Z" fill="#C75327"/>
<defs>
<linearGradient id="paint0_linear_273_1096" x1="166.801" y1="13.3835" x2="184.893" y2="6.27553" gradientUnits="userSpaceOnUse">
<stop stop-color="#FAA61A"/>
<stop offset="1" stop-color="#C75327"/>
</linearGradient>
</defs>
</svg>
